# xmcd
#
# Track frame offsets:
#	182
#	30717
#	52392
#	77695
#	103792
#	151685
#
# Disc length: 2762 seconds
#
# Revision: 0
# Processed by: cddbd v1.5.2PL0 Copyright (c) Steve Scherf et al.
# Submitted via: audiograbber 1.83.01
#
DISCID=440ac806
DTITLE=Johnny Winter - Captured Live!
DYEAR=1976
DGENRE=Rock Blues
TTITLE0=Bony Moronie
TTITLE1=Roll With Me
TTITLE2=Rock and Roll People
TTITLE3=It´s All Over Now
TTITLE4=Highway 61 Revisited
TTITLE5=Sweet Papa John
EXTD=
EXTT0=
EXTT1=
EXTT2=
EXTT3=
EXTT4=
EXTT5=
PLAYORDER=
